                                   Sitting Down Here
                               Single by Lene Marlin 
                      from the album Playing My Game 

  \"Sitting Down Here\" is a pop song written by Norwegian singer-songwriter Lene Marlin for Marlin\'s 1999 debut album Playing My Game. The song is the album\'s opening track, and was released as its second single, peaking at #5 in the UK Singles Chart..

      Format : AVI
      Format/Info : Audio Video Interleave
      File size : 120 MiB
      Duration : 3mn 57s
      Overall bit rate : 4 253 Kbps
   Video
      Format : MPEG-4 Visual
      Format profile : Simple@L3
      Format settings, BVOP : No
      Format settings, QPel : No
      Format settings, GMC : No warppoints
      Format settings, Matrix : Default
      Codec ID : XVID
      Codec ID/Hint : XviD
      Duration : 3mn 57s
      Bit rate : 3 986 Kbps
      Width : 1 280 pixels
      Height : 720 pixels
      Display aspect ratio : 16/9
      Frame rate : 30.000 fps
      Resolution : 24 bits
      Colorimetry : 4:2:0
      Scan type : Progressive
      Bits/(Pixel*Frame) : 0.144
      Stream size : 113 MiB (94%)
      Writing library : ZJMedia MPEG Encoder
   Audio
      Format : AC-3
      Format/Info : Audio Coding 3
      Codec ID : 2000
      Duration : 3mn 57s
      Bit rate mode : Constant
      Bit rate : 256 Kbps
      Channel(s) : 2 channels
      Channel positions : L R
      Sampling rate : 48.0 KHz
      Video delay : 20ms
      Stream size : 7.23 MiB (6%)
      Alignment : Split accross interleaves
      Interleave, duration : 996 ms (29.88 video frames)
